<?xml version="1.0" standalone="no"?><!DOCTYPE svg PUBLIC "-//W3C//DTD SVG 1.1//EN" "http://www.w3.org/Graphics/SVG/1.1/DTD/svg11.dtd"><svg t="1760787882886" class="icon" viewBox="0 0 1024 1024" version="1.1" xmlns="http://www.w3.org/2000/svg" p-id="8723" data-spm-anchor-id="a313x.search_index.0.i6.7be33a81Gs22Y6" xmlns:xlink="http://www.w3.org/1999/xlink" width="200" height="200"><path d="M617.554 84.716S482.918 158.12 421.36 279.777c-58.686 115.979-17.132 171.812-51.62 178.596-27.623 5.432-46.5-34.145-53.284-69.202-2.365-12.226-10.742-45.798-10.742-45.798s-36.797 37.775-52.26 56.924c-23.746 29.399-110.627 153.626-86.523 297.876 33.5 200.49 225.383 251.807 376.341 239.37C694.236 925.108 859.658 809.099 861.24 610.54c1.27-159.514-100.244-228.49-149.263-266.302-44.324-34.186-88.765-97.25-87.64-189.41 1.132-46.934-6.783-70.112-6.783-70.112z" fill="#f4ea2a" p-id="8724"></path></svg>