<?xml version="1.0" standalone="no"?><!DOCTYPE svg PUBLIC "-//W3C//DTD SVG 1.1//EN" "http://www.w3.org/Graphics/SVG/1.1/DTD/svg11.dtd"><svg t="1760788110286" class="icon" viewBox="0 0 1024 1024" version="1.1" xmlns="http://www.w3.org/2000/svg" p-id="6695" xmlns:xlink="http://www.w3.org/1999/xlink" width="200" height="200"><path d="M507.648 8.192l-347.477333 397.653333a21.76 21.76 0 0 0 16.384 36.096h187.562666a22.186667 22.186667 0 0 1 21.76 22.186667 1630.72 1630.72 0 0 1-12.544 207.616c-23.296 169.386667-105.216 264.533333-168.362666 313.685333a21.76 21.76 0 0 0 18.090666 38.144C588.8 963.157333 665.6 553.472 679.338667 460.629333a21.248 21.248 0 0 1 21.504-18.773333h170.666666a21.76 21.76 0 0 0 16.213334-36.010667L540.330667 8.192a21.76 21.76 0 0 0-32.768 0z" p-id="6696" fill="#d81e06"></path></svg>