<?xml version="1.0" standalone="no"?><!DOCTYPE svg PUBLIC "-//W3C//DTD SVG 1.1//EN" "http://www.w3.org/Graphics/SVG/1.1/DTD/svg11.dtd"><svg t="1760787851607" class="icon" viewBox="0 0 1024 1024" version="1.1" xmlns="http://www.w3.org/2000/svg" p-id="4564" xmlns:xlink="http://www.w3.org/1999/xlink" width="200" height="200"><path d="M512.056472 1023.744056a400.904302 400.904302 0 0 1-156.605742-31.449121A399.528603 399.528603 0 0 1 140.937654 779.893398a397.673009 397.673009 0 0 1 9.597901-332.183335A405.89521 405.89521 0 0 1 265.262458 308.732465a333.431062 333.431062 0 0 0 54.388103-52.724467 324.824945 324.824945 0 0 0 53.684257-93.195613 247.593839 247.593839 0 0 0 12.7972-98.346487L383.636564 9.533914a10.845628 10.845628 0 0 1 1.247727-5.022901 8.894054 8.894054 0 0 1 7.806293-4.574999 9.5979 9.5979 0 0 1 4.670978 1.247727l47.317649 27.833911a406.311119 406.311119 0 0 1 153.91833 163.164308 442.175274 442.175274 0 0 1 61.490549 231.053457 6.942481 6.942481 0 0 0 2.175524 5.566783 6.3986 6.3986 0 0 0 4.319056 1.695629h0.575874a7.454369 7.454369 0 0 0 4.734964-2.239511 238.891742 238.891742 0 0 0 50.484956-81.102258l14.876746-42.550692a13.277096 13.277096 0 0 1 1.823601-3.199301 9.5979 9.5979 0 0 1 7.006467-3.1993 9.118005 9.118005 0 0 1 6.046678 2.303496l33.432686 30.617303a395.913394 395.913394 0 0 1 94.731278 131.875152 393.865842 393.865842 0 0 1 34.168525 161.212735 392.362171 392.362171 0 0 1-30.617302 153.118505 394.0578 394.0578 0 0 1-87.468866 129.411691 396.713219 396.713219 0 0 1-127.972006 85.421314 405.703252 405.703252 0 0 1-156.349799 31.577093z m-5.374824-481.046771c-52.308558 0-84.717468 37.367826-84.717468 97.514669s33.240729 99.178305 84.717468 99.178304 84.653482-38.871497 84.653482-99.178304c0-59.15506-33.240729-97.450683-84.653482-97.450683z m121.861343 3.615209v189.494548h37.815728v-67.185303h25.306464c45.94195 0 73.359953-23.45087 73.359952-62.738276s-24.986534-59.411004-74.287749-59.411004h-62.162402z m-364.720218 0v31.449121h53.236355v158.045427h37.879714V577.793608h53.684256v-31.449121H263.854766z m242.890868 160.252945c-27.92989 0-46.037929-26.042303-46.037929-66.353485s17.69213-64.977786 46.037929-64.977786 46.005936 24.890555 46.005936 64.977786-18.108039 66.417471-46.037929 66.417471z m182.360109-68.177086h-22.81101V576.193958h21.563283c27.993876 0 39.927266 8.830068 39.927266 29.497547 0.063986 22.107164-12.605243 32.792827-38.615553 32.792827z" fill="#d81e06" p-id="4565"></path></svg>