<?xml version="1.0" standalone="no"?><!DOCTYPE svg PUBLIC "-//W3C//DTD SVG 1.1//EN" "http://www.w3.org/Graphics/SVG/1.1/DTD/svg11.dtd"><svg t="1760761270754" class="icon" viewBox="0 0 1024 1024" version="1.1" xmlns="http://www.w3.org/2000/svg" p-id="5665" xmlns:xlink="http://www.w3.org/1999/xlink" width="200" height="200"><path d="M504.876522 11.353043c62.553043 0 104.403478 5.609739 141.401043 23.507479a34.103652 34.103652 0 1 1-29.829565 61.44c-25.154783-12.243478-58.679652-16.695652-111.616-16.695652-230.711652 0-376.520348 159.966609-376.520348 406.79513a34.148174 34.148174 0 0 1-68.296348 0c0-283.158261 174.881391-475.046957 444.816696-475.046957zM793.778087 144.027826a34.192696 34.192696 0 0 1 48.217043 2.893913c78.358261 88.286609 99.105391 154.668522 99.684174 306.621218v34.459826a34.148174 34.148174 0 0 1-68.029217 4.585739l-0.311652-4.585739v-33.613913c-0.356174-136.815304-16.473043-187.881739-82.454261-262.233044a34.103652 34.103652 0 0 1 2.893913-48.128z" fill="#ffffff" p-id="5666"></path><path d="M796.315826 306.042435m55.652174 0l2.537739 0q55.652174 0 55.652174 55.652174l0 70.656q0 55.652174-55.652174 55.652174l-2.537739 0q-55.652174 0-55.652174-55.652174l0-70.656q0-55.652174 55.652174-55.652174Z" fill="#ffffff" p-id="5667"></path><path d="M87.885913 306.042435m55.652174 0l2.537739 0q55.652174 0 55.652174 55.652174l0 70.656q0 55.652174-55.652174 55.652174l-2.537739 0q-55.652174 0-55.652174-55.652174l0-70.656q0-55.652174 55.652174-55.652174Z" fill="#ffffff" p-id="5668"></path><path d="M392.058435 1005.211826a337.029565 337.029565 0 0 1 52.802782-52.758261 75.954087 75.954087 0 0 0-9.794782-3.917913c-31.298783-14.336-55.429565-23.462957-72.392348-27.380869h35.261217v-150.483479c27.38087 11.709217 42.384696 17.586087 44.966957 17.586087 6.544696-15.62713 16.962783-35.172174 31.298782-58.63513a21.192348 21.192348 0 0 1 3.917914-7.835826c-89.978435-14.336-137.572174-42.340174-142.82574-84.057044h45.011479c-2.626783 14.336-4.585739 26.089739-5.87687 35.172174 19.589565 0 41.093565 3.917913 64.556522 11.753739 6.544696-27.38087 12.421565-59.302957 17.630609-95.766261H264.859826a119.763478 119.763478 0 0 1 11.753739-21.504 34.281739 34.281739 0 0 0 3.917913-9.794782c-14.336-5.209043-36.507826-9.126957-66.515478-11.709218-13.04487 52.090435-30.675478 91.848348-52.847304 119.229218l-3.917913-9.794783c-45.634783 28.672-86.728348 50.843826-123.236174 66.470957-7.835826 2.626783-11.753739 4.585739-11.753739 5.876869 11.753739 26.045217 22.839652 46.925913 33.257739 62.553044 1.335652 0 5.87687-3.250087 13.712695-9.794783 28.672-23.462957 66.515478-49.508174 113.485913-78.180174a277.370435 277.370435 0 0 1-17.630608-29.295304c2.626783 1.29113 7.168 2.582261 13.712695 3.873391 18.253913 3.917913 30.630957 7.168 37.175653 9.794783 14.336-23.462957 23.462957-39.757913 27.380869-48.88487h31.298783c-15.671652 50.843826-57.433043 81.474783-125.239652 91.89287l3.917913 3.917913c11.753739 11.709217 18.921739 22.127304 21.548521 31.254261H94.653217v160.278261h54.76174a517.342609 517.342609 0 0 1-115.400348 23.462956c14.336 18.253913 24.754087 37.13113 31.298782 56.676174 79.560348-14.336 137.572174-36.507826 174.08-66.470956 37.843478 9.126957 84.146087 28.672 138.952348 58.63513l13.712696 7.835826zM96.612174 661.192348c3.917913-1.335652 22.171826-13.668174 54.761739-37.131131 0-6.500174-18.253913-31.254261-54.761739-74.26226-16.918261 9.126957-34.54887 22.127304-52.847304 39.090086 0 1.29113 2.626783 5.209043 7.835826 11.709218 16.962783 18.253913 31.966609 38.466783 44.966956 60.594087z m287.610435 103.602087H223.766261c37.843478-16.918261 65.224348-39.090087 82.18713-66.470957 13.04487 20.880696 39.134609 43.008 78.269218 66.470957z m-230.889739 158.319304V815.638261h181.960347v93.851826a4131.439304 4131.439304 0 0 0-68.474434-23.462957c1.335652-6.500174 4.585739-15.003826 9.794782-25.377391 5.209043-11.753739 6.500174-18.921739 3.917913-21.548522-16.962783-3.917913-41.093565-5.832348-72.392348-5.832347-3.917913 42.963478-22.171826 72.97113-54.761739 89.933913z m448.066782-258.003478c10.418087-5.209043 33.257739-14.336 68.474435-27.38087-28.716522-57.344-43.720348-87.262609-44.966957-89.933913-13.089391 5.253565-35.261217 14.380522-66.56 27.38087 13.04487 20.880696 27.38087 50.843826 43.052522 89.933913z m283.692522 306.888348c18.253913 20.836174 37.175652 29.295304 56.720696 25.377391 22.171826 0 35.884522-32.545391 41.093565-97.725217-3.917913-2.582261-13.668174-7.123478-29.339826-13.668174a213.481739 213.481739 0 0 1-25.421913-9.794783c-3.917913 31.298783-8.45913 41.71687-13.712696 31.298783-9.126957-20.836174-13.712696-56.676174-13.712696-107.52v-226.704696h-215.218087v54.717217h45.011479v101.643131h-56.720696v54.717217h56.720696v209.163131h62.597565v-209.163131h45.011478v41.049044c0 63.844174 15.671652 112.729043 46.970435 146.610087z m-44.966957-242.376348h-47.014956v-101.643131h46.970435v101.643131z m-246.561391 261.921391c1.335652 0 7.168-5.87687 17.630609-17.586087 29.96313-36.507826 64.556522-74.930087 103.69113-115.311304-1.335652-1.335652-7.835826-10.462609-19.589565-27.38087a851.567304 851.567304 0 0 1-13.668174-19.589565l-2.582261 2.626783-15.048348 15.003826c-11.753739 13.000348-20.21287 22.127304-25.421913 27.336348V690.532174h-117.403826v54.717217h56.720696v146.610087c0 13.000348-7.123478 26.045217-21.504 39.090087-3.917913 3.917913-5.87687 6.500174-5.87687 7.791305 6.544696 13.04487 20.880696 30.630957 43.052522 52.802782z" fill="#ffffff" p-id="5669"></path></svg>