<svg height="40" version="1.1" viewBox="8 8 24 24" width="40" xmlns="http://www.w3.org/2000/svg">
<g fill="none" fill-rule="evenodd" stroke="none" stroke-width="40">

<g fill="#000" transform="translate(10 9.5)">
<path d="M10,-1.10489395e-12 C13.4778136,-1.10489395e-12 16.2971386,2.81932498 16.2971386,6.29713859 C16.2971386,9.77495221 13.4778136,12.5942772 10,12.5942772 C6.52218639,12.5942772 3.70286141,9.77495221 3.70286141,6.29713859 C3.70286141,2.81932498 6.52218639,-1.10489395e-12 10,-1.10489395e-12 Z M8.12887123,7.22301734 C7.89409963,6.90599375 7.44678125,6.83931535 7.12975767,7.07408695 C6.81273409,7.30885856 6.74605568,7.75617693 6.98082729,8.07320051 C7.12210234,8.26397114 7.28076637,8.44134034 7.45463015,8.60293689 C7.65136713,8.78579277 7.86677637,8.94772021 8.09728147,9.08580201 C8.6881825,9.43977543 9.36512985,9.62966677 10.068182,9.62966677 C10.7712342,9.62966677 11.4481816,9.43977543 12.0390826,9.08580201 C12.2695877,8.94772021 12.4849969,8.78579277 12.6817339,8.60293689 C12.8555977,8.44134034 13.0142617,8.26397114 13.1555368,8.07320051 C13.3903084,7.75617693 13.32363,7.30885856 13.0066064,7.07408695 C12.6895828,6.83931535 12.2422644,6.90599375 12.0074928,7.22301734 C11.9185776,7.34308385 11.8186633,7.45477723 11.7091711,7.5565441 C11.5853333,7.67164433 11.4498173,7.77351439 11.3049538,7.86029344 C10.9343596,8.08229424 10.5108432,8.20109535 10.068182,8.20109535 C9.62552085,8.20109535 9.20200446,8.08229424 8.83141026,7.86029344 C8.68654675,7.77351439 8.55103079,7.67164433 8.42719298,7.5565441 C8.31770071,7.45477723 8.21778641,7.34308385 8.12887123,7.22301734 Z"></path>
<path d="M4.78571429,11.4285714 L15.2142857,11.4285714 C17.8573627,11.4285714 20,13.5712087 20,16.2142857 L20,20 C20,20.5522847 19.5522847,21 19,21 L1,21 C0.44771525,21 6.76353751e-17,20.5522847 0,20 L0,16.2142857 C-3.23683581e-16,13.5712087 2.14263727,11.4285714 4.78571429,11.4285714 Z" fill-opacity=".6"></path>
</g>
</g>
</svg>
