<svg xmlns="http://www.w3.org/2000/svg" width="40" height="40" version="1.1" viewBox="8 8 24 24">
  <g fill="none" fill-rule="evenodd" stroke="none" stroke-width="40">
    
    <g fill="#000" transform="translate(10.577 10.67)">
      <path d="M14.2857143,0 C15.3376852,2.8800676e-17 16.1904762,0.852790953 16.1904762,1.9047619 L16.1904762,15.2380952 C16.1904762,16.2900662 15.3376852,17.1428571 14.2857143,17.1428571 L1.9047619,17.1428571 C0.852790953,17.1428571 1.28521179e-15,16.2900662 0,15.2380952 L0,1.9047619 C9.3215319e-17,0.852790953 0.852790953,4.15288534e-16 1.9047619,0 L14.2857143,0 Z M12.6190476,10.952381 L3.57142857,10.952381 C3.17693946,10.952381 2.85714286,11.2721776 2.85714286,11.6666667 C2.85714286,12.0282817 3.12586084,12.3271342 3.47450423,12.3744318 L3.57142857,12.3809524 L12.6190476,12.3809524 C13.0135367,12.3809524 13.3333333,12.0611558 13.3333333,11.6666667 C13.3333333,11.2721776 13.0135367,10.952381 12.6190476,10.952381 Z M12.6190476,7.61904762 L9.76190476,7.61904762 C9.36741565,7.61904762 9.04761905,7.93884423 9.04761905,8.33333333 C9.04761905,8.69494835 9.31633703,8.99380092 9.66498042,9.04109846 L9.76190476,9.04761905 L12.6190476,9.04761905 C13.0135367,9.04761905 13.3333333,8.72782244 13.3333333,8.33333333 C13.3333333,7.93884423 13.0135367,7.61904762 12.6190476,7.61904762 Z M5.04761905,4.52380952 C3.83785245,4.52380952 2.85714286,5.50451912 2.85714286,6.71428571 C2.85714286,7.92405231 3.83785245,8.9047619 5.04761905,8.9047619 C6.25738564,8.9047619 7.23809524,7.92405231 7.23809524,6.71428571 C7.23809524,5.50451912 6.25738564,4.52380952 5.04761905,4.52380952 Z M12.6190476,4.76190476 L9.76190476,4.76190476 C9.36741565,4.76190476 9.04761905,5.08170137 9.04761905,5.47619048 C9.04761905,5.83780549 9.31633703,6.13665806 9.66498042,6.1839556 L9.76190476,6.19047619 L12.6190476,6.19047619 C13.0135367,6.19047619 13.3333333,5.87067958 13.3333333,5.47619048 C13.3333333,5.08170137 13.0135367,4.76190476 12.6190476,4.76190476 Z"/>
      <path d="M7.37219419,0.589893027 L18.4113465,3.54782497 C19.4274724,3.82009509 20.0304867,4.86454643 19.7582166,5.88067235 L16.5537903,17.839754 C16.2815202,18.8558799 15.2370688,19.4588942 14.2209429,19.1866241 L3.1817906,16.2286921 C2.16566469,15.956422 1.56265043,14.9119707 1.83492054,13.8958447 L3.37881254,8.13325071 C3.78059819,8.60531921 4.37913932,8.9047619 5.04761905,8.9047619 C6.25738564,8.9047619 7.23809524,7.92405231 7.23809524,6.71428571 C7.23809524,5.50451912 6.25738564,4.52380952 5.04761905,4.52380952 C4.78944167,4.52380952 4.54169651,4.56847517 4.31168936,4.65050068 L5.03934682,1.93676309 C5.31161693,0.920637175 6.35606828,0.31762291 7.37219419,0.589893027 Z" opacity=".6"/>
    </g>
  </g>
</svg>
