<svg xmlns="http://www.w3.org/2000/svg" width="40" height="40" version="1.1" viewBox="8 8 24 24">
  <g fill="none" fill-rule="evenodd" stroke="none" stroke-width="1">
    <g transform="translate(10 10)">
      <path fill="#000" fill-opacity=".6" d="M17.8947368,1.73843851 C19.0068892,1.73843851 19.9176222,2.6008171 19.9947141,3.69335237 L20,3.84370167 L20,14.9547594 C20,16.4544511 18.94733,17.7377852 17.4964579,18.0441806 L17.3130723,18.0773368 L10.9972484,19.0304127 C10.8564917,19.4460514 10.4631821,19.7452109 10,19.7452109 C9.53681795,19.7452109 9.14350835,19.4460514 9.00275155,19.0304127 L2.68692769,18.0773368 C1.14222005,17.8443541 1.32914769e-15,16.5169382 0,14.9547594 L0,3.84370167 C-1.42390263e-16,2.68099693 0.942558421,1.73843851 2.10526316,1.73843851 C2.23237134,1.73843851 2.35921835,1.74994996 2.48424999,1.77283181 L7.41058551,2.6743932 C8.91047017,2.94888488 10,4.25590302 10,5.78069798 L10.0051863,5.59882006 C10.0842262,4.21585563 11.0590537,3.04400125 12.4037969,2.71410155 L12.5894145,2.6743932 L17.51575,1.77283181 C17.6407816,1.74994996 17.7676287,1.73843851 17.8947368,1.73843851 Z"/>
      <path fill="#000" d="M4.59114731,0.476440038 L8.27535784,1.17871273 C9.26817991,1.36796137 9.98642002,2.23604229 9.98642002,3.24674043 L9.98642002,16.0221099 C9.98642002,16.6034622 9.51514081,17.0747414 8.93378844,17.0747414 C8.86764928,17.0747414 8.80165732,17.068508 8.73668796,17.0561237 L3.80274536,16.115631 C2.80992329,15.9263824 2.09168318,15.0583014 2.09168318,14.0476033 L2.09168318,2.54446774 C2.09168318,1.381763 3.0342416,0.439204577 4.19694634,0.439204577 C4.32922466,0.439204577 4.46120858,0.451671523 4.59114731,0.476440038 Z"/>
      <path fill="#E6F8FF" d="M12.4311171,0.476440038 L16.1153276,1.17871273 C17.1081497,1.36796137 17.8263898,2.23604229 17.8263898,3.24674043 L17.8263898,16.0221099 C17.8263898,16.6034622 17.3551106,17.0747414 16.7737582,17.0747414 C16.707619,17.0747414 16.6416271,17.068508 16.5766577,17.0561237 L11.6427151,16.115631 C10.6498931,15.9263824 9.93165294,15.0583014 9.93165294,14.0476033 L9.93165294,2.54446774 C9.93165294,1.381763 10.8742114,0.439204577 12.0369161,0.439204577 C12.1691944,0.439204577 12.3011783,0.451671523 12.4311171,0.476440038 Z" transform="matrix(-1 0 0 1 27.758 0)"/>
    </g>
  </g>
</svg>
